<svg width="32" height="32" viewBox="0 0 32 32" fill="none" xmlns="http://www.w3.org/2000/svg">
  <!-- Background circle with wood grain effect -->
  <circle cx="16" cy="16" r="15" fill="url(#woodGradient)" stroke="#654321" stroke-width="1"/>
  
  <!-- Wood grain texture lines -->
  <path d="M6 10c6 0 8 2 12 2s6-1 8-1" stroke="#5D4037" stroke-width="0.8" opacity="0.6" fill="none"/>
  <path d="M5 14c7 0 9 1.5 13 1.5s7-0.5 9-0.5" stroke="#5D4037" stroke-width="0.7" opacity="0.5" fill="none"/>
  <path d="M4 18c8 0 10 1 14 1s8-0.5 10-0.5" stroke="#5D4037" stroke-width="0.8" opacity="0.6" fill="none"/>
  <path d="M6 22c6 0 8 1.5 12 1.5s6-1 8-1" stroke="#5D4037" stroke-width="0.7" opacity="0.5" fill="none"/>
  
  <!-- Chisel/carving tool representing craftsmanship -->
  <g transform="translate(12, 8)">
    <!-- Chisel handle -->
    <rect x="6" y="0" width="2" height="8" fill="#8D6E63" rx="1"/>
    <!-- Chisel blade -->
    <path d="M6.5 8 L6.5 12 L7.5 13 L7.5 8 Z" fill="#B0BEC5"/>
    <!-- Chisel tip -->
    <path d="M6.5 12 L7 13.5 L7.5 12 Z" fill="#90A4AE"/>
  </g>
  
  <!-- Wood shaving curl -->
  <path d="M8 24 Q10 22 12 23 Q11 25 9 24" fill="#DEB887" opacity="0.8"/>
  <path d="M20 24 Q22 22 24 23 Q23 25 21 24" fill="#DEB887" opacity="0.8"/>
  
  <!-- Subtle highlight -->
  <circle cx="16" cy="16" r="15" fill="url(#highlight)" opacity="0.15"/>
  
  <defs>
    <!-- Wood grain gradient -->
    <radialGradient id="woodGradient" cx="0.3" cy="0.3" r="0.8">
      <stop offset="0%" stop-color="#D2691E"/>
      <stop offset="50%" stop-color="#CD853F"/>
      <stop offset="100%" stop-color="#8B4513"/>
    </radialGradient>
    
    <!-- Subtle highlight -->
    <radialGradient id="highlight" cx="0.3" cy="0.3" r="0.6">
      <stop offset="0%" stop-color="white"/>
      <stop offset="100%" stop-color="white" stop-opacity="0"/>
    </radialGradient>
  </defs>
</svg>